<svg version="1.2" width="200px" height="200px" fill-rule="evenodd" baseProfile="tiny-ps" xmlns="http://www.w3.org/2000/svg">
  <title>bimi-svg-tiny-12-ps</title>
  <g>
    <path fill="#0a3952" d="M 99.5,199.5 C 98.8333,199.5 98.1667,199.5 97.5,199.5C 36.4831,169.843 8.14981,120.843 12.5,52.5C 12.506,42.5921 12.8393,32.7587 13.5,23C 42.699,18.7835 71.0323,11.2835 98.5,0.5C 125.165,12.8333 153.165,20.1666 182.5,22.5C 183.192,23.0253 183.692,23.6919 184,24.5C 185.076,48.5595 184.409,72.5595 182,96.5C 175.009,135.011 155.176,164.844 122.5,186C 114.77,190.526 107.104,195.026 99.5,199.5 Z"/>
  </g>
  <g>
    <path fill="#a0a2a2" d="M 175.5,27.5 C 177.422,35.5637 178.088,43.897 177.5,52.5C 173.6,53.4299 169.6,53.7633 165.5,53.5C 165.666,49.1539 165.499,44.8206 165,40.5C 141.809,37.9917 119.642,31.6583 98.5,21.5C 77.9813,31.4157 56.3147,37.249 33.5,39C 33,39.5 32.5,40 32,40.5C 31.501,44.8206 31.3343,49.1539 31.5,53.5C 27.2022,52.8005 22.8689,52.4672 18.5,52.5C 18.5,44.1667 18.5,35.8333 18.5,27.5C 46.5197,26.2036 73.0197,19.2036 98,6.5C 122.583,18.1165 148.416,25.1165 175.5,27.5 Z"/>
  </g>
  <g>
    <path fill="#627781" d="M 175.5,27.5 C 176.5,27.5 177.5,27.5 178.5,27.5C 178.826,36.0168 178.493,44.3501 177.5,52.5C 178.088,43.897 177.422,35.5637 175.5,27.5 Z"/>
  </g>
  <g>
    <path fill="#0087b5" d="M 80.5,53.5 C 83.8499,53.335 87.1832,53.5017 90.5,54C 83.6107,56.6934 77.4441,60.5268 72,65.5C 69.6047,71.3524 67.6047,77.3524 66,83.5C 65.0701,86.85 65.9035,89.6833 68.5,92C 74.7547,93.1268 80.7547,92.4601 86.5,90C 89.1184,85.4459 92.4518,81.4459 96.5,78C 99.1667,77.3333 101.833,77.3333 104.5,78C 112.247,83.0761 119.413,88.9094 126,95.5C 131.763,102.686 137.763,109.686 144,116.5C 147.563,123.771 145.396,126.938 137.5,126C 129.63,118.461 121.463,111.294 113,104.5C 113.398,106.631 114.398,108.631 116,110.5C 122.011,117.343 128.178,124.01 134.5,130.5C 131.976,133.84 128.643,135.34 124.5,135C 117.199,128.353 109.532,122.187 101.5,116.5C 101.167,116.667 100.833,116.833 100.5,117C 106.276,124.612 112.609,131.779 119.5,138.5C 117.381,141.892 114.381,143.059 110.5,142C 104.792,136.623 98.7921,131.623 92.5,127C 90.9751,125.991 89.3084,125.491 87.5,125.5C 86.218,118.885 82.218,114.885 75.5,113.5C 71.2873,104.461 64.6206,102.128 55.5,106.5C 52.4606,103.312 48.7939,101.145 44.5,100C 36.8117,99.8315 29.1451,99.3315 21.5,98.5C 20.7565,95.557 20.2565,92.557 20,89.5C 19.5002,79.172 19.3335,68.8387 19.5,58.5C 34.8304,59.1975 50.1637,59.3642 65.5,59C 70.7027,57.4355 75.7027,55.6022 80.5,53.5 Z"/>
  </g>
  <g>
    <path fill="#a2a4a3" d="M 104.5,53.5 C 113.275,53.2768 121.608,55.1101 129.5,59C 145.501,59.2693 161.501,59.1026 177.5,58.5C 177.666,68.8387 177.5,79.172 177,89.5C 176.821,92.5535 176.321,95.5535 175.5,98.5C 168.243,99.3843 161.243,101.218 154.5,104C 152.506,106.827 150.172,109.327 147.5,111.5C 138.742,101.239 129.409,91.406 119.5,82C 114.678,77.8439 109.345,74.5106 103.5,72C 100.406,71.3482 97.406,71.6815 94.5,73C 89.6054,77.473 84.9387,82.1396 80.5,87C 77.5184,87.498 74.5184,87.6646 71.5,87.5C 72.2125,80.5286 74.0458,73.8619 77,67.5C 85.9093,62.1537 95.0759,57.487 104.5,53.5 Z"/>
  </g>
  <g>
    <path fill="#486573" d="M 35.5,105.5 C 31.0293,104.911 27.0293,105.577 23.5,107.5C 22.596,106.791 22.2627,105.791 22.5,104.5C 27.0323,104.182 31.3656,104.515 35.5,105.5 Z"/>
  </g>
  <g>
    <path fill="#a0a2a2" d="M 23.5,107.5 C 27.0293,105.577 31.0293,104.911 35.5,105.5C 41.9725,129.587 55.3059,149.087 75.5,164C 82.8378,169.004 90.5045,173.504 98.5,177.5C 119.502,167.993 136.336,153.659 149,134.5C 153.824,125.854 157.824,116.854 161,107.5C 165.293,105.674 169.793,104.674 174.5,104.5C 162.671,145.489 137.338,174.822 98.5,192.5C 66.5294,178.363 43.3627,155.363 29,123.5C 26.863,118.255 25.0297,112.922 23.5,107.5 Z"/>
  </g>
  <g>
    <path fill="#9b9f9f" d="M 40.5,104.5 C 44.514,104.56 47.6806,106.227 50,109.5C 49.3763,115.81 46.7096,116.81 42,112.5C 40.7475,109.986 40.2475,107.32 40.5,104.5 Z"/>
  </g>
  <g>
    <path fill="#9fa1a1" d="M 60.5,109.5 C 66.7264,108.909 69.893,111.576 70,117.5C 66.6207,121.216 62.9541,124.549 59,127.5C 55.35,126.349 52.85,124.015 51.5,120.5C 54.1133,116.55 57.1133,112.883 60.5,109.5 Z"/>
  </g>
  <g>
    <path fill="#9fa1a1" d="M 73.5,120.5 C 78.1562,119.34 80.8228,121.007 81.5,125.5C 79.57,131.033 76.4034,135.7 72,139.5C 68.4258,138.095 65.5924,135.761 63.5,132.5C 66.8414,128.469 70.1747,124.469 73.5,120.5 Z"/>
  </g>
  <g>
    <path fill="#9b9f9f" d="M 85.5,130.5 C 87.1439,130.286 88.6439,130.62 90,131.5C 89.3733,136.051 88.8733,140.717 88.5,145.5C 84.2589,146.25 80.9255,144.917 78.5,141.5C 81.1045,137.946 83.4378,134.279 85.5,130.5 Z"/>
  </g>
  <g>
    <path fill="#0082af" d="M 95.5,137.5 C 98.7945,139.158 101.794,141.324 104.5,144C 100.255,146.394 96.5881,145.728 93.5,142C 94.0439,140.415 94.7106,138.915 95.5,137.5 Z"/>
  </g>
</svg>
